<svg width="140" height="112" viewBox="0 0 140 112" fill="none" xmlns="http://www.w3.org/2000/svg">
<path d="M113.135 23.9879V37.7295C113.135 38.8673 112.216 39.7908 111.084 39.7908H95.0225C93.8904 39.7908 92.9717 38.8673 92.9717 37.7295V23.9879C92.9717 22.8474 93.8904 21.9267 95.0225 21.9267H111.084C112.216 21.9267 113.135 22.8474 113.135 23.9879Z" fill="#555760"/>
<path d="M9.78962 21.9252H2.05078C0.918204 21.9252 0 22.8478 0 23.9865V37.7281C0 38.8667 0.918204 39.7893 2.05078 39.7893H9.78962C10.9222 39.7893 11.8404 38.8667 11.8404 37.7281V23.9865C11.8404 22.8481 10.9222 21.9252 9.78962 21.9252Z" fill="#555760"/>
<path d="M140 23.9878V37.7294C140 38.8672 139.081 39.7906 137.949 39.7906H130.211C129.079 39.7906 128.16 38.8672 128.16 37.7294V23.9878C128.16 22.8473 129.079 21.9266 130.211 21.9266H137.949C139.081 21.9266 140 22.8473 140 23.9878Z" fill="#555760"/>
<path d="M140 31.0592V37.7293C140 38.8671 139.081 39.7906 137.949 39.7906H130.211C129.079 39.7906 128.16 38.8671 128.16 37.7293V31.0592C128.16 32.197 129.079 33.1204 130.211 33.1204H137.949C139.081 33.1204 140 32.197 140 31.0592Z" fill="#2E384D"/>
<path d="M11.8399 31.0578V37.728C11.8399 38.8658 10.9211 39.7892 9.78907 39.7892H2.05078C0.918751 39.7892 0 38.8658 0 37.728V31.0578C0 32.1956 0.918751 33.119 2.05078 33.119H9.78907C10.9211 33.119 11.8399 32.1956 11.8399 31.0578Z" fill="#2E384D"/>
<path d="M113.135 33.1211V37.73C113.135 38.8678 112.216 39.7912 111.084 39.7912H95.0225C93.8904 39.7912 92.9717 38.8678 92.9717 37.73V33.1211H113.135Z" fill="#2E384D"/>
<path d="M18.6708 13.0499V48.6653C18.6708 50.1824 18.0583 51.5538 17.0685 52.5487C16.0814 53.5436 14.7142 54.1565 13.2048 54.1565C12.2095 54.1565 11.2771 53.8899 10.4731 53.4199C8.83799 52.4745 7.73877 50.6991 7.73877 48.6653V13.0499C7.73877 11.0161 8.83799 9.24072 10.4731 8.2953C11.2771 7.82533 12.2095 7.55875 13.2048 7.55875C16.2235 7.55875 18.6708 10.0157 18.6708 13.0499Z" fill="#3FB023"/>
<path d="M18.6708 13.0496V48.6651C18.6708 50.1821 18.0583 51.5536 17.0685 52.5484C16.0814 53.5433 14.7142 54.1562 13.2048 54.1562C12.2095 54.1562 11.2771 53.8896 10.4731 53.4197C10.8888 53.1806 11.2688 52.8865 11.6052 52.5484C12.5923 51.5536 13.2048 50.1821 13.2048 48.6651V13.0496C13.2048 11.0159 12.1056 9.24319 10.4731 8.29502C11.2771 7.82506 12.2095 7.55847 13.2048 7.55847C16.2235 7.55847 18.6708 10.0155 18.6708 13.0496Z" fill="#4CD62B"/>
<path d="M132.276 13.049V48.6644C132.276 50.1815 131.663 51.5529 130.673 52.5478C129.686 53.5427 128.319 54.1556 126.81 54.1556C125.814 54.1556 124.882 53.889 124.078 53.419C122.443 52.4736 121.344 50.6982 121.344 48.6644V13.049C121.344 11.0152 122.443 9.2398 124.078 8.29438C124.882 7.82442 125.814 7.55783 126.81 7.55783C129.829 7.55783 132.276 10.0148 132.276 13.049Z" fill="#3FB023"/>
<path d="M132.276 13.049V48.6644C132.276 50.1815 131.663 51.5529 130.673 52.5478C129.686 53.5427 128.319 54.1556 126.81 54.1556C125.814 54.1556 124.882 53.889 124.078 53.419C124.494 53.1799 124.874 52.8858 125.21 52.5478C126.197 51.5529 126.81 50.1815 126.81 48.6644V13.049C126.81 11.0152 125.711 9.24255 124.078 8.29438C124.882 7.82442 125.814 7.55783 126.81 7.55783C129.829 7.55783 132.276 10.0148 132.276 13.049Z" fill="#4DD82B"/>
<path d="M97.0729 23.8065V37.7295C97.0729 38.1829 96.9225 38.6254 96.6463 38.9855L85.9221 52.9744L89.1104 86.5121C89.1651 87.0893 88.9737 87.6637 88.5854 88.0952C88.1971 88.5239 87.6475 88.7685 87.0678 88.7685H52.9318C52.3522 88.7685 51.8025 88.5239 51.4143 88.0952C51.026 87.6637 50.8346 87.0893 50.8893 86.5121L51.4717 80.3944L51.5756 79.295L54.0447 53.2987L43.7389 45.3011C43.2357 44.9108 42.9404 44.3089 42.9404 43.6713V15.8666C42.9404 14.7288 43.8592 13.8054 44.9912 13.8054H87.117C92.6049 13.8054 97.0729 18.2906 97.0729 23.8065Z" fill="#FFD3C0"/>
<path d="M97.0727 23.8065V37.7295C97.0727 38.1829 96.9223 38.6254 96.6461 38.9855L85.9219 52.9744L89.1102 86.5121C89.1649 87.0893 88.9735 87.6637 88.5852 88.0952C88.1969 88.5239 87.6473 88.7685 87.0676 88.7685H52.9316C52.352 88.7685 51.8023 88.5239 51.4141 88.0952C51.0258 87.6637 50.8344 87.0893 50.8891 86.5121L51.4715 80.3944L51.5754 79.295H79.6848C80.2645 79.295 80.8141 79.0504 81.2024 78.6217C81.5907 78.1902 81.7821 77.6158 81.7274 77.0387L79.6328 52.8452L91.4508 37.2073C91.727 36.8473 91.8774 36.4048 91.8774 35.9486V22.0283C91.8774 18.6232 88.536 15.611 85.941 13.8054H87.1168C92.6047 13.8054 97.0727 18.2906 97.0727 23.8065Z" fill="#FFB9A1"/>
<path d="M85.8316 23.9879V31.4084C85.8316 31.8069 85.7167 32.1999 85.498 32.5324L85.1152 33.1206L81.3937 38.8536C81.0164 39.439 80.3683 39.7908 79.6765 39.7908H28.9155C27.7835 39.7908 26.8647 38.8673 26.8647 37.7295V23.9879C26.8647 23.4355 27.0835 22.9078 27.4745 22.5203C27.8628 22.1328 28.396 21.9184 28.9401 21.9267H83.8027C84.9265 21.9377 85.8316 22.8584 85.8316 23.9879Z" fill="#555760"/>
<path d="M26.8647 33.1205H85.1152L81.3937 38.8535C81.0164 39.4389 80.3683 39.7906 79.6765 39.7906H28.9155C27.7835 39.7906 26.8647 38.8672 26.8647 37.7294V33.1205Z" fill="#2E384D"/>
<path d="M30.9669 6.17874V55.5358C30.9669 58.9437 28.2107 61.714 24.82 61.714C23.7017 61.714 22.6517 61.4117 21.7466 60.8812C19.9091 59.8149 18.6704 57.8196 18.6704 55.5358V6.17874C18.6704 3.89488 19.9091 1.89961 21.7466 0.833259C22.6517 0.302833 23.7017 0.000518799 24.82 0.000518799C28.2107 0.000518799 30.9669 2.77082 30.9669 6.17874Z" fill="#4953B8"/>
<path d="M30.9669 6.17877V55.5358C30.9669 58.9437 28.2106 61.714 24.82 61.714C23.7017 61.714 22.6517 61.4117 21.7466 60.8813C23.5813 59.8149 24.82 57.8169 24.82 55.5358V6.17877C24.82 3.89766 23.5813 1.89964 21.7466 0.833289C22.6517 0.302864 23.7017 0.000549316 24.82 0.000549316C28.2106 0.000549316 30.9669 2.77085 30.9669 6.17877Z" fill="#5965E0"/>
<path d="M121.33 6.17822V55.5353C121.33 58.9432 118.573 61.7135 115.183 61.7135C114.064 61.7135 113.014 61.4112 112.109 60.8807C110.272 59.8144 109.033 57.8191 109.033 55.5353V6.17822C109.033 3.89437 110.272 1.89909 112.109 0.832741C113.014 0.302316 114.064 0 115.183 0C118.573 0 121.33 2.77031 121.33 6.17822Z" fill="#5297E8"/>
<path d="M121.33 6.17822V55.5353C121.33 58.9432 118.574 61.7135 115.183 61.7135C114.065 61.7135 113.015 61.4112 112.11 60.8807C113.945 59.8144 115.183 57.8164 115.183 55.5353V6.17822C115.183 3.89712 113.945 1.89909 112.11 0.832741C113.015 0.302316 114.065 0 115.183 0C118.574 0 121.33 2.77031 121.33 6.17822Z" fill="#5965E0"/>
<path d="M48.3027 8.40359C45.3416 8.40359 42.9414 10.8161 42.9414 13.7922V25.6696C42.9414 28.6458 45.3416 31.0582 48.3027 31.0582C51.2638 31.0582 53.664 28.6458 53.664 25.6696V13.7922C53.664 10.8163 51.2635 8.40359 48.3027 8.40359Z" fill="#FFD3C0"/>
<path d="M59.0249 8.40359C56.0638 8.40359 53.6636 10.8161 53.6636 13.7922V25.6696C53.6636 28.6458 56.0638 31.0582 59.0249 31.0582C61.9859 31.0582 64.3862 28.6458 64.3862 25.6696V13.7922C64.3862 10.8163 61.9859 8.40359 59.0249 8.40359Z" fill="#FFB9A1"/>
<path d="M69.7475 8.40359C66.7865 8.40359 64.3862 10.8161 64.3862 13.7922V25.6696C64.3862 28.6458 66.7865 31.0582 69.7475 31.0582C72.7086 31.0582 75.1088 28.6458 75.1088 25.6696V13.7922C75.1088 10.8163 72.7086 8.40359 69.7475 8.40359Z" fill="#FFD3C0"/>
<path d="M80.4707 8.40359C77.5096 8.40359 75.1094 10.8161 75.1094 13.7922V25.6696C75.1094 28.6458 77.5096 31.0582 80.4707 31.0582C83.4317 31.0582 85.832 28.6458 85.832 25.6696V13.7922C85.8317 10.8163 83.4315 8.40359 80.4707 8.40359Z" fill="#FFB9A1"/>
<path d="M97.6502 111.307C97.2592 111.747 96.7014 112 96.1163 112H43.8842C43.299 112 42.7412 111.747 42.3502 111.307C41.9619 110.868 41.7787 110.282 41.8471 109.697L42.4185 104.854L44.5842 86.4654C44.7045 85.4293 45.5795 84.646 46.6213 84.646H93.3791C94.4209 84.646 95.2959 85.4293 95.4163 86.4654L98.1534 109.697C98.2217 110.282 98.0385 110.868 97.6502 111.307Z" fill="#EEF6FF"/>
<path d="M97.6502 111.307C97.2592 111.747 96.7014 112 96.1163 112H43.8842C43.299 112 42.7412 111.747 42.3502 111.307C41.9619 110.868 41.7787 110.282 41.8471 109.697L42.4185 104.854H87.9213C88.5065 104.854 89.0643 104.602 89.4526 104.162C89.8436 103.722 90.0241 103.137 89.9557 102.551L88.1483 86.4654C88.0252 85.4293 87.1502 84.646 86.1112 84.646H93.3791C94.4209 84.646 95.2959 85.4293 95.4163 86.4654L98.1534 109.697C98.2217 110.282 98.0385 110.868 97.6502 111.307Z" fill="#DAE6EF"/>
</svg>
